<mxfile host="Electron" agent="Mozilla/5.0 (Windows NT 10.0; Win64; x64) AppleWebKit/537.36 (KHTML, like Gecko) draw.io/27.0.9 Chrome/134.0.6998.205 Electron/35.4.0 Safari/537.36" version="27.0.9">
  <diagram name="MOLIC ManiClick" id="molic-maniclick">
    <mxGraphModel dx="690" dy="593" grid="1" gridSize="10" guides="1" tooltips="1" connect="1" arrows="1" fold="1" page="1" pageScale="1" pageWidth="1600" pageHeight="1200" math="0" shadow="0">
      <root>
        <mxCell id="0" />
        <mxCell id="1" parent="0" />
        <mxCell id="2" value="Início" style="ellipse;whiteSpace=wrap;html=1;fillColor=#ffe3f0;strokeColor=#d63384;fontColor=#000000;" parent="1" vertex="1">
          <mxGeometry x="80" y="80" width="120" height="60" as="geometry" />
        </mxCell>
        <mxCell id="3" value="Página Inicial" style="rounded=1;whiteSpace=wrap;html=1;fillColor=#fff;strokeColor=#d63384;fontColor=#000000;" parent="1" vertex="1">
          <mxGeometry x="300" y="80" width="180" height="60" as="geometry" />
        </mxCell>
        <mxCell id="4" style="edgeStyle=orthogonalEdgeStyle;endArrow=block;strokeColor=#d63384;" parent="1" source="2" target="3" edge="1">
          <mxGeometry relative="1" as="geometry" />
        </mxCell>
        <mxCell id="5" value="Explorar Serviços" style="rounded=1;whiteSpace=wrap;html=1;fillColor=#ffe3f0;strokeColor=#d63384;fontColor=#000000;" parent="1" vertex="1">
          <mxGeometry x="540" y="30" width="180" height="60" as="geometry" />
        </mxCell>
        <mxCell id="6" style="edgeStyle=orthogonalEdgeStyle;endArrow=block;strokeColor=#d63384;" parent="1" source="3" target="5" edge="1">
          <mxGeometry relative="1" as="geometry" />
        </mxCell>
        <mxCell id="7" value="Agendar Horário" style="rounded=1;whiteSpace=wrap;html=1;fillColor=#ffe3f0;strokeColor=#d63384;fontColor=#000000;" parent="1" vertex="1">
          <mxGeometry x="540" y="130" width="180" height="60" as="geometry" />
        </mxCell>
        <mxCell id="8" style="edgeStyle=orthogonalEdgeStyle;endArrow=block;strokeColor=#d63384;" parent="1" source="3" target="7" edge="1">
          <mxGeometry relative="1" as="geometry" />
        </mxCell>
        <mxCell id="9" value="Detalhe do Serviço" style="rounded=1;whiteSpace=wrap;html=1;fillColor=#fff;strokeColor=#d63384;fontColor=#000000;" parent="1" vertex="1">
          <mxGeometry x="800" y="30" width="180" height="60" as="geometry" />
        </mxCell>
        <mxCell id="10" style="edgeStyle=orthogonalEdgeStyle;endArrow=block;strokeColor=#d63384;" parent="1" source="5" target="9" edge="1">
          <mxGeometry relative="1" as="geometry" />
        </mxCell>
        <mxCell id="11" value="Galeria de Exemplos" style="rounded=1;whiteSpace=wrap;html=1;fillColor=#fff;strokeColor=#d63384;fontColor=#000000;" parent="1" vertex="1">
          <mxGeometry x="1060" y="30" width="180" height="60" as="geometry" />
        </mxCell>
        <mxCell id="12" style="edgeStyle=orthogonalEdgeStyle;endArrow=block;strokeColor=#d63384;" parent="1" source="9" target="11" edge="1">
          <mxGeometry relative="1" as="geometry" />
        </mxCell>
        <mxCell id="13" value="Formulário de Agendamento" style="rounded=1;whiteSpace=wrap;html=1;fillColor=#fff;strokeColor=#d63384;fontColor=#000000;" parent="1" vertex="1">
          <mxGeometry x="800" y="130" width="180" height="60" as="geometry" />
        </mxCell>
        <mxCell id="14" style="edgeStyle=orthogonalEdgeStyle;endArrow=block;strokeColor=#d63384;" parent="1" source="7" target="13" edge="1">
          <mxGeometry relative="1" as="geometry" />
        </mxCell>
        <mxCell id="15" value="Confirmação de Agendamento" style="rounded=1;whiteSpace=wrap;html=1;fillColor=#fff;strokeColor=#d63384;fontColor=#000000;" parent="1" vertex="1">
          <mxGeometry x="1060" y="130" width="180" height="60" as="geometry" />
        </mxCell>
        <mxCell id="16" style="edgeStyle=orthogonalEdgeStyle;endArrow=block;strokeColor=#d63384;" parent="1" source="13" target="15" edge="1">
          <mxGeometry relative="1" as="geometry" />
        </mxCell>
        <mxCell id="17" value="Avaliações" style="rounded=1;whiteSpace=wrap;html=1;fillColor=#ffe3f0;strokeColor=#d63384;fontColor=#000000;" parent="1" vertex="1">
          <mxGeometry x="300" y="220" width="180" height="60" as="geometry" />
        </mxCell>
        <mxCell id="18" style="edgeStyle=orthogonalEdgeStyle;endArrow=block;strokeColor=#d63384;" parent="1" source="3" target="17" edge="1">
          <mxGeometry relative="1" as="geometry" />
        </mxCell>
        <mxCell id="19" value="Sobre / Equipe / Contato" style="rounded=1;whiteSpace=wrap;html=1;fillColor=#ffe3f0;strokeColor=#d63384;fontColor=#000000;" parent="1" vertex="1">
          <mxGeometry x="300" y="320" width="180" height="60" as="geometry" />
        </mxCell>
        <mxCell id="20" style="edgeStyle=orthogonalEdgeStyle;endArrow=block;strokeColor=#d63384;fontColor=#000000;" parent="1" source="3" target="19" edge="1">
          <mxGeometry relative="1" as="geometry" />
        </mxCell>
        <mxCell id="21" value="Fim" style="ellipse;whiteSpace=wrap;html=1;fillColor=#ffe3f0;strokeColor=#d63384;fontColor=#000000;" parent="1" vertex="1">
          <mxGeometry x="80" y="320" width="120" height="60" as="geometry" />
        </mxCell>
        <mxCell id="22" style="edgeStyle=orthogonalEdgeStyle;endArrow=block;strokeColor=#d63384;" parent="1" source="17" target="21" edge="1">
          <mxGeometry relative="1" as="geometry" />
        </mxCell>
        <mxCell id="23" style="edgeStyle=orthogonalEdgeStyle;endArrow=block;strokeColor=#d63384;" parent="1" source="19" target="21" edge="1">
          <mxGeometry relative="1" as="geometry" />
        </mxCell>
      </root>
    </mxGraphModel>
  </diagram>
</mxfile>
